#!OML:ASF F:\VICON\USERDATA\INSTALL\rory3\rory3.ASF
:FULLY-SPECIFIED
:DEGREES
357
root 0.42326 16.3915 3.66388 6.97066 -37.0846 9.81579
lowerback -7.3252 1.49985 7.11656
upperback -0.0814088 1.46932 -1.84597
thorax 4.2651 0.895587 -5.78668
lowerneck -5.66467 0.733416 -11.0876
upperneck 48.8268 1.60581 2.00735
head 20.1352 -1.52029 3.20689
rclavicle -7.17613e-014 1.11319e-014
rhumerus -22.7859 32.2344 -82.6451
rradius 68.9963
rwrist -14.9384
rhand -10.695 -46.3861
rfingers 7.12502
rthumb 15.3143 -75.7991
lclavicle -7.17613e-014 1.11319e-014
lhumerus -9.91889 -37.1436 80.6568
lradius 83.1384
lwrist 31.776
lhand -20.3017 -18.1413
lfingers 7.12502
lthumb 6.04859 11.7523
rfemur -16.2274 1.74054 0.771958
rtibia 59.1616
rfoot -4.18301 -15.0295
rtoes -31.291
lfemur -38.6819 -18.7403 -29.7199
ltibia 46.2042
lfoot -17.6822 -10.6289
ltoes 20.1607
358
root 0.426007 16.3823 3.66122 7.05881 -37.169 9.83782
lowerback -7.41041 1.5614 7.07071
upperback -0.00937433 1.54736 -1.83701
thorax 4.39941 0.94062 -5.74012
lowerneck -5.76812 0.660804 -11.0869
upperneck 48.9242 1.5312 1.95562
head 20.2514 -1.56179 3.17368
rclavicle 4.37326e-015 -1.27222e-014
rhumerus -22.7949 32.3249 -82.9234
rradius 68.4365
rwrist -14.5184
rhand -10.7483 -46.238
rfingers 7.12502
rthumb 15.2629 -75.6549
lclavicle 4.37326e-015 -1.27222e-014
lhumerus -10.0953 -37.2428 80.9265
lradius 83.1289
lwrist 31.9623
lhand -20.1543 -17.9459
lfingers 7.12502
lthumb 6.19081 11.9436
rfemur -16.4739 1.77962 0.723617
rtibia 59.3105
rfoot -4.01464 -15.0693
rtoes -29.558
lfemur -38.8643 -18.7153 -29.7207
ltibia 46.2842
lfoot -17.672 -10.5581
ltoes 20.1482
359
root 0.424804 16.3787 3.66261 7.09237 -36.8781 9.93756
lowerback -7.51032 1.60182 7.0554
upperback 0.0738086 1.59785 -1.92473
thorax 4.55344 0.975005 -5.81663
lowerneck -5.91287 0.490845 -11.1545
upperneck 49.089 1.21233 2.16631
head 20.4512 -1.68423 3.25247
rclavicle -4.23411e-014 2.22639e-014
rhumerus -22.8708 32.2007 -83.2255
rradius 67.9031
rwrist -14.2552
rhand -11.1002 -45.9555
rfingers 7.12502
rthumb 14.924 -75.3979
lclavicle -4.23411e-014 2.22639e-014
lhumerus -10.1437 -37.6579 81.1274
lradius 83.0972
lwrist 32.2339
lhand -19.6066 -17.8003
lfingers 7.12502
lthumb 6.71959 12.073
rfemur -16.4946 1.50212 0.677957
rtibia 59.4303
rfoot -3.99021 -15.2054
rtoes -27.3392
lfemur -38.9904 -18.9716 -29.7463
ltibia 46.357
lfoot -17.588 -10.692
ltoes 20.589
360
root 0.423801 16.3751 3.66884 7.07448 -36.5372 10.0483
lowerback -7.63472 1.60649 7.07581
upperback 0.183529 1.59325 -1.96692
thorax 4.74067 0.98442 -5.87136
lowerneck -5.96882 0.337028 -11.5851
upperneck 49.1631 0.891994 2.61047
head 20.5583 -1.83987 3.51516
rclavicle 1.03766e-013 -2.70347e-014
rhumerus -22.8991 32.2437 -83.4037
rradius 67.4402
rwrist -14.1777
rhand -11.1856 -46.0037
rfingers 7.12502
rthumb 14.8417 -75.4521
lclavicle 1.03766e-013 -2.70347e-014
lhumerus -10.2397 -37.9958 81.4288
lradius 83.0359
lwrist 32.1006
lhand -19.8781 -17.6116
lfingers 7.12502
lthumb 6.45753 12.27
rfemur -16.4281 1.2034 0.617045
rtibia 59.5267
rfoot -4.14791 -15.3039
rtoes -29.0509
lfemur -39.0755 -19.3119 -29.7902
ltibia 46.4485
lfoot -17.46 -10.8814
ltoes 21.5735
361
root 0.424422 16.3676 3.67136 7.0985 -36.3557 10.0132
lowerback -7.55994 2.04363 7.27425
upperback 0.331044 2.17397 -2.20926
thorax 4.96371 1.29492 -6.16966
lowerneck -5.97739 -0.153777 -11.1937
upperneck 49.102 -0.05176 2.82212
head 20.6229 -2.09563 3.40198
rclavicle -1.41137e-014 2.38542e-014
rhumerus -23.0783 30.9501 -83.4947
rradius 67.1603
rwrist -14.2768
rhand -11.3338 -46.2324
rfingers 7.12502
rthumb 14.6989 -75.6913
lclavicle -1.41137e-014 2.38542e-014
lhumerus -9.86782 -39.5033 81.5665
lradius 82.9863
lwrist 32.1132
lhand -20.3443 -17.0068
lfingers 7.12502
lthumb 6.00743 12.888
rfemur -16.3933 1.08987 0.652474
rtibia 59.6283
rfoot -4.49802 -15.2303
rtoes -30.5762
lfemur -39.1323 -19.448 -29.7863
ltibia 46.5783
lfoot -17.5463 -10.8215
ltoes 21.5068
362
root 0.424417 16.3577 3.67157 7.15447 -36.2269 9.90312
lowerback -7.27067 2.77323 7.5588
upperback 0.472853 3.16794 -2.69599
thorax 5.15994 1.8176 -6.72863
lowerneck -6.04506 -0.923669 -9.80252
upperneck 48.91 -1.52469 2.70714
head 20.6365 -2.39641 2.83849
rclavicle -1.05952e-013 -2.14687e-014
rhumerus -23.3516 28.4162 -83.7214
rradius 66.9288
rwrist -14.245
rhand -11.4598 -46.9568
rfingers 7.12502
rthumb 14.5776 -76.4245
lclavicle -1.05952e-013 -2.14687e-014
lhumerus -9.13066 -41.7484 81.3634
lradius 82.8947
lwrist 32.3643
lhand -19.5079 -17.0236
lfingers 7.12502
lthumb 6.81492 12.8467
rfemur -16.3588 1.07448 0.748215
rtibia 59.7517
rfoot -4.97585 -15.1332
rtoes -27.6214
lfemur -39.1883 -19.4596 -29.7579
ltibia 46.7709
lfoot -17.8222 -10.5878
ltoes 20.3747
363
root 0.425875 16.3466 3.66912 7.28316 -36.2425 9.76871
lowerback -7.02741 3.15331 7.75081
upperback 0.52284 3.68971 -2.93323
thorax 5.19796 2.09055 -7.03097
lowerneck -6.0916 -1.32144 -8.94618
upperneck 48.7564 -2.2411 2.47647
head 20.5801 -2.52655 2.43609
rclavicle -1.55052e-014 1.59028e-015
rhumerus -23.5496 27.079 -84.007
rradius 66.6993
rwrist -14.1064
rhand -11.6175 -47.2012
rfingers 7.12502
rthumb 14.4255 -76.6798
lclavicle -1.55052e-014 1.59028e-015
lhumerus -9.02339 -42.5824 81.4344
lradius 82.7378
lwrist 32.2018
lhand -18.3329 -18.3291
lfingers 7.12502
lthumb 7.94909 11.5014
rfemur -16.5283 1.16594 0.856932
rtibia 59.9359
rfoot -5.22788 -15.1254
rtoes -24.8642
lfemur -39.3828 -19.3606 -29.6575
ltibia 47.0147
lfoot -18.0364 -10.4228
ltoes 19.5652
364
root 0.428166 16.337 3.66293 7.48847 -36.3407 9.55769
lowerback -6.89381 3.22773 7.90881
upperback 0.526905 3.78339 -2.87931
thorax 5.15106 2.13895 -7.05616
lowerneck -6.06961 -1.37843 -9.01877
upperneck 48.7068 -2.34351 2.54941
head 20.5506 -2.56711 2.46945
rclavicle 5.74488e-014 1.74931e-014
rhumerus -23.6676 27.1091 -84.2515
rradius 66.4093
rwrist -13.9113
rhand -11.9203 -47.0056
rfingers 7.12502
rthumb 14.1338 -76.5049
lclavicle 5.74488e-014 1.74931e-014
lhumerus -9.38234 -42.6068 81.7597
lradius 82.6493
lwrist 32.1672
lhand -18.075 -19.988
lfingers 7.12502
lthumb 8.19799 9.83296
rfemur -16.8652 1.29985 1.0561
rtibia 60.1736
rfoot -5.15507 -15.2267
rtoes -27.1247
lfemur -39.6753 -19.2462 -29.4097
ltibia 47.2414
lfoot -18.059 -10.5613
ltoes 19.8354
